# 3ds Max Wavefront OBJ Exporter v0.97b - (c)2007 guruware
# File Created: 24.08.2019 00:58:34

#
# object Walls
#

v  -478.3562 306.4438 -191.8474
v  -478.3562 306.4438 -692.5858
v  -498.6762 306.4438 -692.5858
v  -498.6762 306.4438 -191.8474
v  -498.6762 -126.8676 -191.8474
v  -478.3562 -126.8676 -191.8474
v  -478.3562 204.6325 -191.8474
v  -498.6762 204.6325 -191.8474
v  -478.3562 -126.8676 -692.5858
v  -478.3562 204.6325 -692.5858
v  -478.3562 -126.8676 -713.3650
v  -498.6762 -126.8676 -713.3650
v  -498.6762 204.6325 -713.3650
v  -478.3562 204.6325 -713.3650
v  -478.3562 306.4438 -713.3650
v  -498.6762 306.4438 -713.3650
v  -498.6762 204.6325 -692.5858
v  -498.6762 -126.8676 -692.5858
v  543.5708 204.6325 -713.3650
v  543.5708 -126.8676 -713.3650
v  523.2898 306.4438 -692.5858
v  543.5708 306.4438 -713.3650
v  523.2898 -126.8676 -692.5858
v  523.2898 204.6325 -692.5858
v  543.5708 -126.8676 194.8775
v  543.5708 204.6325 194.8775
v  523.2898 204.6325 194.8775
v  523.2898 -126.8676 194.8775
v  543.5708 204.6325 -6.5333
v  543.5708 -126.8676 -6.5333
v  523.2898 306.4438 -6.5333
v  543.5708 306.4438 -6.5333
v  523.2898 -126.8676 -6.5333
v  523.2898 204.6325 -6.5333
v  523.2898 306.4438 13.4672
v  543.5708 306.4438 13.4672
v  523.2898 -126.8676 13.4672
v  523.2898 204.6325 13.4672
v  543.5708 -126.8676 13.4672
v  543.5708 204.6325 13.4672
v  523.2898 306.4438 194.8775
v  543.5708 306.4438 194.8775
v  984.5321 -126.8676 13.4672
v  984.5321 204.6325 13.4672
v  1004.6997 204.6325 -6.5333
v  1004.6997 -126.8676 -6.5333
v  984.5321 306.4438 13.4672
v  1004.6997 306.4438 -6.5333
v  1004.6997 -126.8676 364.4580
v  1004.6997 204.6325 364.4580
v  984.5321 204.6325 364.4580
v  984.5321 -126.8676 364.4580
v  1004.6997 204.6325 344.2721
v  1004.6997 -126.8676 344.2721
v  984.5321 306.4438 344.2721
v  1004.6997 306.4438 344.2721
v  984.5321 -126.8676 344.2721
v  984.5321 204.6325 344.2721
v  984.5321 306.4438 364.4580
v  1004.6997 306.4438 364.4580
v  524.0438 -126.8676 364.4580
v  524.0438 204.6325 364.4580
v  524.0438 204.6325 344.2721
v  524.0438 -126.8676 344.2721
v  -1110.4249 306.4438 -713.3650
v  -1090.6541 306.4438 -692.5858
v  -1110.4249 -126.8676 -713.3650
v  -1110.4249 204.6325 -713.3650
v  -1090.6541 204.6325 -692.5858
v  -1090.6541 -126.8676 -692.5858
v  -1110.4249 -126.8676 58.7321
v  -1110.4249 204.6325 58.7321
v  -1090.6541 204.6325 38.1274
v  -1090.6541 -126.8676 38.1274
v  -1110.4249 306.4438 58.7321
v  -1090.6541 306.4438 38.1274
v  -479.1937 204.6325 58.7321
v  -479.1937 -126.8676 58.7321
v  -479.1937 -126.8676 38.1274
v  -479.1937 204.6325 38.1274
v  -500.0653 -126.8676 58.7321
v  -500.0653 204.6325 58.7321
v  -500.0653 204.6325 38.1274
v  -500.0653 -126.8676 38.1274
v  -500.0653 306.4438 58.7321
v  -500.0653 306.4438 38.1274
v  -479.1937 -126.8676 294.5609
v  -479.1937 204.6325 294.5609
v  -500.0653 204.6325 294.5609
v  -500.0653 -126.8676 294.5609
v  -479.1937 204.6325 -53.1060
v  -479.1937 -126.8676 -53.1060
v  -500.0653 -126.8676 -53.1060
v  -500.0653 204.6325 -53.1060
v  -479.1937 306.4438 58.7321
v  -479.1937 306.4438 38.1274
v  -500.0653 306.4438 294.5609
v  -479.1937 306.4438 294.5609
v  -479.1937 306.4438 -53.1060
v  -500.0653 306.4438 -53.1060
v  544.4600 204.6325 364.4580
v  544.4600 -126.8676 364.4580
v  544.4600 306.4438 344.2721
v  544.4600 306.4438 364.4580
v  544.4600 -126.8676 344.2721
v  544.4600 204.6325 344.2721
v  524.0438 204.6325 381.5424
v  524.0438 -126.8676 381.5424
v  544.4600 -126.8676 381.5424
v  544.4600 204.6325 381.5424
v  524.0438 306.4438 344.2721
v  524.0438 306.4438 364.4580
v  524.0438 306.4438 381.5424
v  544.4600 306.4438 381.5424
v  544.4600 306.4438 327.1876
v  524.0438 306.4438 327.1876
v  1206.5730 -126.8676 364.4580
v  1206.5730 204.6325 364.4580
v  1226.8809 204.6325 344.2721
v  1226.8809 -126.8676 344.2721
v  1206.5730 306.4438 364.4580
v  1226.8809 306.4438 344.2721
v  1226.8809 204.6325 722.6849
v  1226.8809 -126.8676 722.6849
v  1206.5730 306.4438 702.5110
v  1226.8809 306.4438 722.6849
v  1206.5730 -126.8676 702.5110
v  1206.5730 204.6325 702.5110
v  524.2520 204.6325 722.6849
v  524.2520 -126.8676 722.6849
v  544.4911 -126.8676 722.6849
v  544.4911 204.6325 722.6849
v  524.2520 306.4438 702.5110
v  524.2520 306.4438 722.6849
v  544.4911 306.4438 722.6849
v  544.4911 306.4438 702.5110
v  524.2520 -126.8676 516.8185
v  524.2520 204.6325 516.8185
v  544.4911 204.6325 516.8185
v  544.4911 -126.8676 516.8185
v  -499.0020 204.6325 722.6849
v  -499.0020 -126.8676 722.6849
v  -478.4482 306.4438 702.5110
v  -499.0020 306.4438 722.6849
v  -499.0020 -126.8676 433.9680
v  -499.0020 204.6325 433.9680
v  -478.4482 204.6325 433.9680
v  -478.4481 -126.8676 433.9680
v  -478.4481 -126.8676 702.5110
v  -478.4482 204.6325 702.5110
v  524.2520 204.6325 702.5110
v  524.2520 -126.8676 702.5110
v  544.4911 -126.8676 702.5110
v  544.4911 204.6325 702.5110
v  544.4911 306.4438 516.8185
v  524.2520 306.4438 516.8185
v  -478.4482 306.4438 433.9680
v  -499.0020 306.4438 433.9680
v  544.4600 204.6325 327.1876
v  524.0438 204.6325 327.1876
# 160 vertices

vn 0.0000 1.0000 -0.0000
vn 0.0000 0.0000 1.0000
vn 1.0000 0.0000 -0.0000
vn 0.0000 0.0000 -1.0000
vn -1.0000 0.0000 -0.0000
# 5 vertex normals

vt 0.1759 0.3956 0.0000
vt 0.1756 0.3956 0.0000
vt 0.1756 0.2193 0.0000
vt 0.1759 0.2193 0.0000
vt 0.1934 0.3956 0.0000
vt 0.1934 0.2193 0.0000
vt 0.1931 0.3956 0.0000
vt 0.1931 0.2193 0.0000
vt 0.2009 0.2193 0.0000
vt 0.2009 0.3956 0.0000
vt 0.2013 0.3956 0.0000
vt 0.2013 0.2193 0.0000
vt 0.1651 0.3956 0.0000
vt 0.1654 0.3956 0.0000
vt 0.1651 0.2193 0.0000
vt 0.1654 0.2193 0.0000
vt 0.1755 0.2193 0.0000
vt 0.1755 0.3956 0.0000
vt 0.2047 0.2193 0.0000
vt 0.2047 0.3956 0.0000
vt 0.2051 0.3956 0.0000
vt 0.2051 0.2193 0.0000
# 22 texture coords

o Walls
g Walls
s off
f 1/1/1 2/1/1 3/2/1 4/2/1 
f 5/3/2 6/4/2 7/1/2 8/2/2 
f 9/4/3 10/1/3 7/1/3 6/4/3 
f 11/4/4 12/3/4 13/2/4 14/1/4 
f 15/1/1 16/2/1 3/2/1 2/1/1 
f 5/3/5 8/2/5 17/2/5 18/3/5 
f 14/1/4 19/5/4 20/6/4 11/4/4 
f 2/1/1 21/7/1 22/5/1 15/1/1 
f 9/4/2 23/8/2 24/7/2 10/1/2 
f 25/6/2 26/5/2 27/7/2 28/8/2 
f 19/5/3 29/5/3 30/6/3 20/6/3 
f 21/7/1 31/7/1 32/5/1 22/5/1 
f 23/8/5 33/8/5 34/7/5 24/7/5 
f 35/7/1 36/5/1 32/5/1 31/7/1 
f 37/8/5 38/7/5 34/7/5 33/8/5 
f 39/6/3 40/5/3 26/5/3 25/6/3 
f 36/5/1 35/7/1 41/7/1 42/5/1 
f 38/7/5 37/8/5 28/8/5 27/7/5 
f 39/6/2 43/9/2 44/10/2 40/5/2 
f 29/5/4 45/11/4 46/12/4 30/6/4 
f 36/5/1 47/10/1 48/11/1 32/5/1 
f 49/12/2 50/11/2 51/10/2 52/9/2 
f 45/11/3 53/11/3 54/12/3 46/12/3 
f 47/10/1 55/10/1 56/11/1 48/11/1 
f 43/9/5 57/9/5 58/10/5 44/10/5 
f 59/10/1 60/11/1 56/11/1 55/10/1 
f 61/8/5 62/7/5 63/7/5 64/8/5 
f 16/2/1 65/13/1 66/14/1 3/2/1 
f 12/3/4 67/15/4 68/13/4 13/2/4 
f 17/2/2 69/14/2 70/16/2 18/3/2 
f 67/15/5 71/15/5 72/13/5 68/13/5 
f 69/14/3 73/14/3 74/16/3 70/16/3 
f 65/13/1 75/13/1 76/14/1 66/14/1 
f 77/1/3 78/4/3 79/4/3 80/1/3 
f 71/15/2 81/17/2 82/18/2 72/13/2 
f 73/14/4 83/18/4 84/17/4 74/16/4 
f 75/13/1 85/18/1 86/18/1 76/14/1 
f 87/4/2 88/1/2 89/18/2 90/17/2 
f 91/1/4 92/4/4 93/17/4 94/18/4 
f 95/1/1 96/1/1 86/18/1 85/18/1 
f 78/4/3 77/1/3 88/1/3 87/4/3 
f 95/1/1 85/18/1 97/18/1 98/1/1 
f 82/18/5 81/17/5 90/17/5 89/18/5 
f 80/1/3 79/4/3 92/4/3 91/1/3 
f 84/17/5 83/18/5 94/18/5 93/17/5 
f 86/18/1 96/1/1 99/1/1 100/18/1 
f 51/10/2 101/5/2 102/6/2 52/9/2 
f 55/10/1 103/5/1 104/5/1 59/10/1 
f 57/9/4 105/6/4 106/5/4 58/10/4 
f 107/7/2 108/8/2 109/6/2 110/5/2 
f 111/7/1 112/7/1 104/5/1 103/5/1 
f 62/7/5 61/8/5 108/8/5 107/7/5 
f 102/6/3 101/5/3 110/5/3 109/6/3 
f 104/5/1 112/7/1 113/7/1 114/5/1 
f 111/7/1 103/5/1 115/5/1 116/7/1 
f 49/12/2 117/19/2 118/20/2 50/11/2 
f 53/11/4 119/21/4 120/22/4 54/12/4 
f 60/11/1 121/20/1 122/21/1 56/11/1 
f 119/21/3 123/21/3 124/22/3 120/22/3 
f 121/20/1 125/20/1 126/21/1 122/21/1 
f 117/19/5 127/19/5 128/20/5 118/20/5 
f 129/7/2 130/8/2 131/6/2 132/5/2 
f 133/7/1 134/7/1 135/5/1 136/5/1 
f 137/8/4 138/7/4 139/5/4 140/6/4 
f 141/2/2 142/3/2 130/8/2 129/7/2 
f 124/22/2 123/21/2 132/5/2 131/6/2 
f 143/1/1 144/2/1 134/7/1 133/7/1 
f 126/21/1 125/20/1 136/5/1 135/5/1 
f 145/3/4 146/2/4 147/1/4 148/4/4 
f 149/4/4 150/1/4 151/7/4 152/8/4 
f 128/20/4 127/19/4 153/6/4 154/5/4 
f 133/7/1 136/5/1 155/5/1 156/7/1 
f 154/5/3 153/6/3 140/6/3 139/5/3 
f 152/8/5 151/7/5 138/7/5 137/8/5 
f 142/3/5 141/2/5 146/2/5 145/3/5 
f 144/2/1 143/1/1 157/1/1 158/2/1 
f 150/1/3 149/4/3 148/4/3 147/1/3 
f 7/1/3 10/1/3 2/1/3 1/1/3 
f 10/1/2 24/7/2 21/7/2 2/1/2 
f 24/7/5 34/7/5 31/7/5 21/7/5 
f 34/7/5 38/7/5 35/7/5 31/7/5 
f 38/7/5 27/7/5 41/7/5 35/7/5 
f 27/7/2 26/5/2 42/5/2 41/7/2 
f 26/5/3 40/5/3 36/5/3 42/5/3 
f 40/5/2 44/10/2 47/10/2 36/5/2 
f 44/10/5 58/10/5 55/10/5 47/10/5 
f 58/10/4 106/5/4 103/5/4 55/10/4 
f 106/5/3 159/5/3 115/5/3 103/5/3 
f 160/7/5 63/7/5 111/7/5 116/7/5 
f 63/7/5 62/7/5 112/7/5 111/7/5 
f 62/7/5 107/7/5 113/7/5 112/7/5 
f 107/7/2 110/5/2 114/5/2 113/7/2 
f 110/5/3 101/5/3 104/5/3 114/5/3 
f 101/5/2 51/10/2 59/10/2 104/5/2 
f 51/10/2 50/11/2 60/11/2 59/10/2 
f 50/11/2 118/20/2 121/20/2 60/11/2 
f 118/20/5 128/20/5 125/20/5 121/20/5 
f 128/20/4 154/5/4 136/5/4 125/20/4 
f 154/5/3 139/5/3 155/5/3 136/5/3 
f 139/5/4 138/7/4 156/7/4 155/5/4 
f 138/7/5 151/7/5 133/7/5 156/7/5 
f 151/7/4 150/1/4 143/1/4 133/7/4 
f 150/1/3 147/1/3 157/1/3 143/1/3 
f 147/1/4 146/2/4 158/2/4 157/1/4 
f 146/2/5 141/2/5 144/2/5 158/2/5 
f 141/2/2 129/7/2 134/7/2 144/2/2 
f 129/7/2 132/5/2 135/5/2 134/7/2 
f 132/5/2 123/21/2 126/21/2 135/5/2 
f 123/21/3 119/21/3 122/21/3 126/21/3 
f 119/21/4 53/11/4 56/11/4 122/21/4 
f 53/11/3 45/11/3 48/11/3 56/11/3 
f 45/11/4 29/5/4 32/5/4 48/11/4 
f 29/5/3 19/5/3 22/5/3 32/5/3 
f 19/5/4 14/1/4 15/1/4 22/5/4 
f 14/1/4 13/2/4 16/2/4 15/1/4 
f 13/2/4 68/13/4 65/13/4 16/2/4 
f 68/13/5 72/13/5 75/13/5 65/13/5 
f 72/13/2 82/18/2 85/18/2 75/13/2 
f 82/18/5 89/18/5 97/18/5 85/18/5 
f 89/18/2 88/1/2 98/1/2 97/18/2 
f 88/1/3 77/1/3 95/1/3 98/1/3 
f 77/1/3 80/1/3 96/1/3 95/1/3 
f 80/1/3 91/1/3 99/1/3 96/1/3 
f 91/1/4 94/18/4 100/18/4 99/1/4 
f 94/18/5 83/18/5 86/18/5 100/18/5 
f 83/18/4 73/14/4 76/14/4 86/18/4 
f 73/14/3 69/14/3 66/14/3 76/14/3 
f 69/14/2 17/2/2 3/2/2 66/14/2 
f 17/2/5 8/2/5 4/2/5 3/2/5 
f 8/2/2 7/1/2 1/1/2 4/2/2 
f 160/7/4 116/7/4 115/7/4 159/7/4 
f 64/8/5 63/7/5 106/7/5 105/8/5 
f 63/7/5 160/7/5 159/7/5 106/7/5 
# 133 polygons

#
# object Ceiling_Bedroom
#

v  -1112.3630 328.8820 50.4294
v  -496.6656 328.8820 50.4294
v  -496.6656 328.8820 -717.9739
v  -1112.3630 328.8820 -717.9739
v  -496.6656 307.9109 -717.9739
v  -496.6656 307.9109 50.4294
v  -1112.3630 307.9109 50.4294
v  -1112.3630 307.9109 -717.9739
# 8 vertices

vn 0.0000 1.0000 -0.0000
vn 0.0000 -1.0000 -0.0000
vn 0.0000 0.0000 1.0000
vn 1.0000 0.0000 -0.0000
vn 0.0000 0.0000 -1.0000
vn -1.0000 0.0000 -0.0000
# 6 vertex normals

vt 0.7070 0.0767 0.0000
vt 0.6921 0.0767 0.0000
vt 0.6921 0.0984 0.0000
vt 0.7070 0.0984 0.0000
# 4 texture coords

o Ceiling_Bedroom
g Ceiling_Bedroom
s off
f 161/23/6 162/24/6 163/25/6 164/26/6 
f 165/25/7 166/24/7 167/23/7 168/26/7 
f 162/24/8 161/23/8 167/23/8 166/24/8 
f 163/25/9 162/24/9 166/24/9 165/25/9 
f 164/26/10 163/25/10 165/25/10 168/26/10 
f 161/23/11 164/26/11 168/26/11 167/23/11 
# 6 polygons

#
# object Ceiling_1
#

v  -572.8677 290.9571 808.1085
v  621.7766 290.9571 808.1085
v  621.7766 290.9571 -837.1213
v  -572.8677 290.9571 -837.1213
v  621.7766 288.4171 -837.1213
v  621.7766 288.4171 808.1085
v  -572.8677 288.4171 808.1085
v  -572.8677 288.4171 -837.1213
# 8 vertices

vn 0.0000 1.0000 -0.0000
vn 0.0000 -1.0000 -0.0000
vn 0.0000 0.0000 1.0000
vn 1.0000 0.0000 -0.0000
vn 0.0000 0.0000 -1.0000
vn -1.0000 0.0000 -0.0000
# 6 vertex normals

vt 0.7245 0.0861 0.0000
vt 0.7245 0.1054 0.0000
vt 0.7000 0.1054 0.0000
vt 0.7000 0.0861 0.0000
# 4 texture coords

o Ceiling_1
g Ceiling_1
s off
f 169/27/12 170/28/12 171/29/12 172/30/12 
f 173/29/13 174/28/13 175/27/13 176/30/13 
f 170/28/14 169/27/14 175/27/14 174/28/14 
f 171/29/15 170/28/15 174/28/15 173/29/15 
f 172/30/16 171/29/16 173/29/16 176/30/16 
f 169/27/17 172/30/17 176/30/17 175/27/17 
# 6 polygons

#
# object Ceiling_Bathroom
#

v  540.7617 334.1850 715.4556
v  1226.3140 334.1850 715.4556
v  1226.3140 334.1850 340.1888
v  540.7617 334.1850 340.1888
v  1226.3140 306.4437 340.1888
v  1226.3140 306.4437 715.4556
v  540.7617 306.4437 715.4556
v  540.7617 306.4437 340.1888
# 8 vertices

vn 0.0000 1.0000 -0.0000
vn 0.0000 -1.0000 -0.0000
vn 0.0000 0.0000 1.0000
vn 1.0000 0.0000 -0.0000
vn 0.0000 0.0000 -1.0000
vn -1.0000 0.0000 -0.0000
# 6 vertex normals

vt 0.9656 0.6798 0.0000
vt 0.9656 0.6825 0.0000
vt 0.9059 0.6825 0.0000
vt 0.9059 0.6798 0.0000
# 4 texture coords

o Ceiling_Bathroom
g Ceiling_Bathroom
s off
f 177/31/18 178/32/18 179/33/18 180/34/18 
f 181/33/19 182/32/19 183/31/19 184/34/19 
f 178/32/20 177/31/20 183/31/20 182/32/20 
f 179/33/21 178/32/21 182/32/21 181/33/21 
f 180/34/22 179/33/22 181/33/22 184/34/22 
f 177/31/23 180/34/23 184/34/23 183/31/23 
# 6 polygons

#
# object Ceiling_Laundry
#

v  541.8229 329.6515 339.6661
v  1004.7559 329.6515 339.6661
v  1004.7559 329.6515 -8.3952
v  541.8229 329.6515 -8.3952
v  1004.7559 306.4437 -8.3952
v  1004.7559 306.4437 339.6661
v  541.8229 306.4437 339.6661
v  541.8229 306.4437 -8.3952
# 8 vertices

vn 0.0000 1.0000 -0.0000
vn 0.0000 -1.0000 -0.0000
vn 0.0000 0.0000 1.0000
vn 1.0000 0.0000 -0.0000
vn 0.0000 0.0000 -1.0000
vn -1.0000 0.0000 -0.0000
# 6 vertex normals

vt 0.9055 0.5886 0.0000
vt 1.0000 0.5886 0.0000
vt 1.0000 1.0000 0.0000
vt 0.9055 1.0000 0.0000
# 4 texture coords

o Ceiling_Laundry
g Ceiling_Laundry
s off
f 185/35/24 186/36/24 187/37/24 188/38/24 
f 189/37/25 190/36/25 191/35/25 192/38/25 
f 186/36/26 185/35/26 191/35/26 190/36/26 
f 187/37/27 186/36/27 190/36/27 189/37/27 
f 188/38/28 187/37/28 189/37/28 192/38/28 
f 185/35/29 188/38/29 192/38/29 191/35/29 
# 6 polygons

